# xmcd
#
# Track frame offsets:
#	150
#	10362
#	20565
#	35310
#	44752
#	56260
#	67750
#	79980
#	94245
#	108445
#	118775
#
# Disc length: 1782 seconds
#
# Revision: 0
# Processed by: cddbd v1.5.2PL0 Copyright (c) Steve Scherf et al.
# Submitted via: dBpowerAMP V4.0
#
DISCID=8c06f40b
DTITLE=The Statler Brothers - Oh, Happy Day
DYEAR=1996
DGENRE=Country/Gospel
TTITLE0=Less Of Me
TTITLE1=Things God Gave Me
TTITLE2=King Of Love
TTITLE3=Are You Washed In The Blood
TTITLE4=Pass Me Not
TTITLE5=Daddy Sang Bass
TTITLE6=Oh Happy Day
TTITLE7=Led Out Of Bondage
TTITLE8=Just In Time
TTITLE9=The Fourth Man
TTITLE10=How Great Thou Art
EXTD=
EXTT0=
EXTT1=
EXTT2=
EXTT3=
EXTT4=
EXTT5=
EXTT6=
EXTT7=
EXTT8=
EXTT9=
EXTT10=
PLAYORDER=
